<svg xmlns="http://www.w3.org/2000/svg" xmlns:xlink="http://www.w3.org/1999/xlink" width="500" zoomAndPan="magnify" viewBox="0 0 375 374.999991" height="500" preserveAspectRatio="xMidYMid meet" version="1.0"><defs><clipPath id="b389f745f9"><path d="M 343 28.257812 L 346.738281 28.257812 L 346.738281 347 L 343 347 Z M 343 28.257812 " clip-rule="nonzero"/></clipPath><clipPath id="2b449fda59"><path d="M 28 28.257812 L 346.738281 28.257812 L 346.738281 32 L 28 32 Z M 28 28.257812 " clip-rule="nonzero"/></clipPath></defs><g clip-path="url(#b389f745f9)"><path fill="#f7ba00" d="M 346.328125 30.09375 C 346.328125 30.09375 344.957031 346.964844 344.957031 346.964844 L 343.585938 30.09375 C 343.585938 28.339844 346.300781 28.242188 346.328125 30.09375 Z M 346.328125 30.09375 " fill-opacity="1" fill-rule="nonzero"/></g><g clip-path="url(#2b449fda59)"><path fill="#f7ba00" d="M 344.890625 31.421875 C 265.933594 31.3125 106.957031 30.628906 28.015625 30.050781 C 107.023438 29.476562 265.90625 28.792969 344.890625 28.683594 C 346.574219 28.683594 346.792969 31.367188 344.890625 31.421875 Z M 344.890625 31.421875 " fill-opacity="1" fill-rule="nonzero"/></g></svg>